<?xml version="1.0" encoding="utf-8"?>
<!-- Generator: Adobe Illustrator 23.0.3, SVG Export Plug-In . SVG Version: 6.00 Build 0)  -->
<svg version="1.1" id="Capa_1" xmlns="http://www.w3.org/2000/svg" xmlns:xlink="http://www.w3.org/1999/xlink" x="0px" y="0px"
	 viewBox="0 0 1200 1200" enable-background="new 0 0 1200 1200" xml:space="preserve">
<g>
	<path fill="#FFE4A6" d="M756.587,59.038c5.619-2.148,13.317-2.275,17.894-1.141c10.964,2.715,24.56,16.211,14.264,27.444
		c5.854,0.416,10.228,6.502,10.041,12.367c-0.187,5.865-4.032,11.133-8.856,14.475c-6.367,4.411-14.935,5.942-22.079,2.949
		c-7.99-3.347-10.625-10.366-11.176-18.313c0.063,0.913-13.571-2.613-15.049-5.04c-4.725-7.755,4.766-13.539,11.09-14.636
		c-4.496-3.885-5.312-9.653-1.619-14.409C752.343,61.131,754.291,59.915,756.587,59.038z M757.351,61.532
		c6.874-1.186,13.889-1.885,20.344,1.318c7.779,3.86,13.53,12.839,7.392,20.567c-1.733,2.182,0.321,5.018,2.531,5.6
		c2.08,3.679,4.16,7.358,6.24,11.037c-1.491,2.312-2.982,4.623-4.472,6.935c-3.545,3.493-8.604,5.222-13.474,4.974
		c-9.3-0.473-13.451-6.398-14.382-15.144c-0.403-3.786-4.055-5.074-7.307-3.774c2.312-0.925-4.623-1.831-5.354-2.392
		c-3.65-0.491-4.154-2.632-1.51-6.425c2.002-1.521,4.216-2.482,6.643-2.884c3.599-0.877,4.441-4.687,2.136-7.282
		c-3.604-4.057,1.305-10.391,2.685-14.471c0.387-1.143-0.528-2.308-1.62-2.567c-14.356-3.406-15.014,15.192-7.912,23.2
		c0.712-2.427,1.424-4.855,2.136-7.282c-8.526,2.071-21.339,10.839-13.99,21.04c3.647,5.063,15.913,8.915,21.687,6.611
		c-2.436-1.258-4.872-2.516-7.307-3.774c1.969,18.644,18.033,29.706,36.121,21.419c15.109-6.922,23.236-32.198,1.932-36.574
		c0.844,1.867,1.688,3.734,2.532,5.6c15.865-22.573-18.901-38.831-37.266-30.461C751.952,58.256,754.558,62.014,757.351,61.532z
		 M635.928,72.88c-7.581,5.993-22.635,17.217-15.116,27.973c2.215,3.169,8.576,6.855,14.156,7.734
		c2.174,11.497,12.988,22.964,24.994,14.315c7.165-5.162,5.567-12.471,15.186-15.792c8.045-2.777,15.947-3.634,20.906-11.683
		C715.303,64.191,649.685,35.768,635.928,72.88z M924.088,1062.415c-118.827,61.461-266.508,85.069-399.312,87.443
		c-124.243,2.22-266.445-20.783-349.303-123.085c-35.456-43.776-67.885-110.737-47.592-167.711
		c16.749-47.024,65.406-76.807,102.468-104.48c91.372-68.223,12.127-136.6,39.175-222.097c5.361-16.947,14.225-32.546,25.419-46.542
		c16.135,89.781,23,180.961,39.439,270.703c5.874,32.066,9.666,64.63,17.671,96.271c7.567,29.911,6.902,64.039,31.648,84.129
		c14.633,11.88,60.6,33.771,60.183,34.172c-9.062,5.021-9.984,15.918-12.044,17.375c-7.076,5.002-5.77-3.705-10.932,3.252
		c-1.555,2.096-2.531,4.88-3.063,7.835c-4.789-0.691-9.493-0.049-13.806,1.767c-0.111-0.524-11.469-2.514-11.392-3.056
		c2.13-14.91-1.789-21.391-15.336-16.614c-2.349,0.828-1.889,6.724-5.112,8.52c-4.001,2.229-11.843,0.429-16.188,1.704
		c-7.846,2.303-15.35,0.843-19.596,3.408c-7.89,4.766-2.656,9.557-5.964,20.874c-2.686,9.189-10.65,18.886-9.733,28.093
		c0.035,0.349,0.042,1.471,0.052,2.842c-28.531,10.606-14.363,57.627,17.571,49.974c15.428-3.697,26.543-13.473,31.984-26.49
		c2.209,0.622,4.539,0.995,6.987,1.023c8.981,0.105,17.877,0.196,26.382-1.716c5.621,13.415,22.255,22.776,38.101,14.289
		c1.825-0.977,5.067-2.076,10.629-4.765c4.688-2.266,9.25-5.013,12.99-8.714c2.684-2.655,4.804-5.579,6.429-8.687
		c12.536-8.139,24.927-16.553,31.781-29.16c4.695-8.636,6.205-17.741,6.368-27.017c9.377-0.968,78.767-18.752,108.564-22.511
		c19.028-2.4,109.996-9.764,141.308-10.403c-3.195-10.224,12.372-61.55,15.336-95.851c8.946-103.519,22.61-167.32,27.477-249.212
		c89.594,30.308,198.906,29.144,251.317,125.182C1122.296,878.322,1036.991,1004.019,924.088,1062.415z M608.107,1018.162
		c-3.905-5.835-11.807-7.313-17.091-2.455c-1.211,1.113-2.279,2.535-3.201,4.16c-7.868,0.221-14.704,2.773-16.547,11.661
		c-0.782,3.771-0.346,7.681,0.898,11.352c2.6-6.019,8.588-3.558,13.889-5.033c7.381-2.053,5.048-9.794,11.079-13.02
		c5.005-2.672,10.39,2.802,13.27,7.76C611.108,1027.625,610.936,1022.389,608.107,1018.162z M787.384,1039.951
		c1.084-7.57-4.16-14.33-6.405-21.169c-2.362-7.193-1.245-15.375-5.047-22.108c-7.222-12.79-20.73-6.245-30.511-0.815
		c-1.492,0.829-2.511,1.896-3.173,3.071c-2.418-0.608-5.053-0.964-7.944-0.964c-34.07,0-32.848,46.284,1.278,46.284
		c14.356,0,22.421-8.224,24.423-17.734c1.094,2.11,2.072,4.312,3.173,6.471c2.858,5.61,6.402,10.176,11.637,13.734
		c4.942,3.359,10.469-0.219,12.147-5.044C787.157,1041.115,787.3,1040.537,787.384,1039.951z M605.723,141.311
		c7.005-8.445,9.297-21.397,2.721-31.585c-6.684-10.355-19.156-12.616-28.886-7.451c-4.128-14.427-17.356-25.089-30.597-16.86
		c-5.735-1.411-10.139,3.481-10.649,10.668c-0.474,6.681,2.63,11.31,6.924,14.655c2.815-2.425,5.83-4.46,8.704-6.01
		c4.712-2.54,10.464,4.371,5.947,8.604c-7.774,7.284-18.889,23.549-2.686,26.09c4.62,0.725,5.693,8.129,2.68,11.332
		c-21.882,23.264,22.429,52.913,33.396,17.829c1.261-4.032,4.628-2.604,7.429-2.045c4.031,0.806,7.176,1.268,10.372-2.546
		C616.774,157.195,612.48,145.093,605.723,141.311z M802.948,244.717c-0.268,8.718-2.217,22.109-12.263,23.914
		c-11.162,2.006-23.179-0.248-34.484,0.531c-13.851,0.954-27.255,4.644-37.063,14.974c-3.928,4.137-10.054,13.747-16.675,13.353
		c-1.83-0.109-4.214-2.015-5.824-2.783c-4.002-1.911-8.214-3.273-12.255-5.002c6.069-8.836,4.172-20.889-7.028-23.993
		c6.993-8.877,17.264-25.882,0.958-32.174c-4.327-1.67-9.435-1.266-13.892-0.392c-3.089,0.606-8.882,3.616-3.466,6.221
		c5.051,2.43,12.282-3.451,17,2.605c2.427,3.115,1.464,8.082-0.096,11.356c-2.052,4.307-10.331,8.537-10.563,13.127
		c-0.216,4.289,6.008,6.439,8.526,9.167c3.363,3.644,3.807,7.741,1.759,12.3c-20.045-3.255-38.987-2.089-58.38,4.588
		c-5.876,2.023-11.616,4.431-17.213,7.129c-2.549,1.228-6.504,4.373-9.278,4.259c-1.544-0.063-4.382-2.076-5.904-2.66
		c-9.33-3.574-19.362-5.381-29.274-6.356c-20.507-2.016-40.454-0.382-58.909,9.238c-5.08,2.648-10.011,5.571-14.961,8.451
		c-3.67,2.136-9.369,6.976-13.605,7.52c-3.672,0.472-6.566-4.892-9.672-7.719c-3.54-3.221-7.428-6.069-11.544-8.509
		c-14.839-8.799-35.739-13.673-48.992,0.379c-0.703-9.569-11.485-17.028-19.191-21.082c-11.235-5.911-21.498-3.015-29.671,6.334
		c-5.037-7.934-8.028-14.505-14.957-21.068c-5.038-4.771-7.362-12.557-6.401-19.396c2.782-19.782,14.251,11.259,18.785-1.825
		c2.075-5.987-11.448-27.452,4.187-22.502c7.883,2.496,11.5,7.458,9.398,14.981c-2.076,7.427,0.609,12.585,7.284,16.577
		c13.744,8.218,36.79,4.399,49.333-4.631c-11.667-5.049-20.848-14.16-23.275-27.094c-1.122-5.98-0.345-12.131,3.432-17.086
		c1.603-2.103,3.752-4.17,6.399-4.828c4.196-1.042,7.481,1.13,11.482-1.362c3.153-1.964,4.889-5.637,8.943-6.141
		c5.518-0.686,10.325,1.771,12.644,6.81c3.16,6.867,2.747,12.208,11.779,12.758c7.646,0.465,13.759,0.105,20.538,4.533
		c5.276,3.446,8.863,8.292,11.194,14.079c2.366,5.873,3.803,13.559,10.733,15.754c8.448,2.675,7.775-5.212,12.384-9.137
		c1.031-0.878,6.931-3.036,8.651-3.167c2.443-0.186,4.311,0.731,6.126,2.269c3.305,2.799,4.445,10.112,10.217,7.924
		c5.015-1.901,2.333-8.378,3.704-12.487c2.085-6.248,18.069-16.994,22.215-7.694c1.985,4.453-2.925,8.688-1.962,13.123
		c0.883,4.066,5.096,4.668,7.996,6.885c3.067,2.345,8.231,6.208,10.345-0.452c1.847-5.817-4.443-12.738-4.572-18.756
		c-0.256-11.988-8.996-15.14-19.671-14.058c-14.669,1.487-7.065-15.789-1.485-19.834c-10.208-4.497-1.355-19.939,7.451-23.248
		c10.845-4.076,20.049,3.535,27.246,10.61c3.248,3.193,5.789,9.404,9.945,11.147c5.479,2.297,11.423,2.799,13.337,9.396
		c1.449,4.998,0.563,10.835-0.031,15.877c-0.934,7.938,8.559,4.052,12.262,4.592c4.569,0.666,7.309,5.794,11.748,6.338
		c3.605,0.442,3.236-3.02,5.33-4.469c1.812-1.253,3.606-1.154,5.717-0.936c1.079,0.112,11.97,3.811,11.969,3.814
		c4.466-12.534,12.428-30.7,29.686-25.143c12.676,4.082,13.103,20.952,24.263,26.642c0.428-4.48,5.204-6.893,9.352-6.322
		c5.615,0.772,8.661,6.143,11.879,10.082c8.166-10.025,20.07-20.759,34.161-19.386c9.507,0.927,20.74,15.287,9.41,22.27
		c6.503-3.932,15.95-4.63,23.282-3.224c2.522,0.484,4.443,1.26,5.876,2.356C802.19,236.261,803.101,239.74,802.948,244.717z
		 M465.086,239.118c-0.658-0.883-1.206-1.73-2.236-2.236c-2.586-1.271-5.414-1.023-7.552,0.974c-3.191,2.98-7.596,5.057-12.05,4.183
		c-6.793-1.334-9.024,7.645-2.807,10.182c8.039,3.28,18.066,1.273,23.67-5.551C465.719,244.714,466.819,241.443,465.086,239.118z"/>
	<path fill="#FFF6D9" d="M768.862,219.944c-6.365,4.129-11.686-5.565-18.639-3.608c-10.476,2.948-15.518,20.422-25.254,14.431
		c-10.195-6.274-23.931-2.29-34.881-0.678c-8.713,1.283-15.218-6.206-23.32-7.764c-9.519-1.83-17.897,6.612-27.034,4.655
		c-7.899-1.692-18.297-7.46-21.783-14.99c-1.28-2.765-1.679-5.927-0.996-8.897c2.569-11.175,15.515,0.006,22.632-2.39
		c8.338-2.808,13.654-9.548,21.448-12.466c1.877-0.703,3.897-1.184,6.138-1.335c10.857-0.733,22.43,4.342,32.122-2.123
		c8.215-5.479,12.444-12.978,22.248-16.735c8.25-3.162,19.217-4.591,25.188,3.486c3.268,4.42,4.143,10.11,4.921,15.552
		c4.403-5.027,13.599-3.181,16.999,2.572c3.118,5.276,8.602,12.723,9.92,18.758c0.014,0.066,0.028,0.131,0.041,0.196
		C779.857,214.978,773.191,217.136,768.862,219.944z M740.129,1028.54c0.602,20.321,16.373-0.661,25.844,8.774
		c4.619,4.602,7.751,9.836,14.74,10.962c17.438,2.811,5.916-13.23,7.402-20.937c0.623-3.234,4.14-5.135,4.082-8.726
		c-0.137-8.434-9.572-6.367-13.759-10.578c-7.997-8.041,5.131-24.61-13.274-25.418c-4.607-0.202-12.513,1.267-15.859,4.688
		c-1.471,1.504-2.257,3.337-2.712,5.314C743.904,1004.297,739.77,1016.424,740.129,1028.54z M999.589,815.521
		c-3.069-3.871-9.063,0.362-7.915,4.607c3.895,14.405,7.363,28.803,8.996,43.298c-1.136,1.137-2.089,2.613-2.701,4.527
		c-4.066,12.726-9.382,24.821-15.836,36.239c3.083-8.613,6.463-18.461,3.553-25.875c-2.455-6.254-8.118-8.58-14.262-5.802
		c-0.342,0.154-0.684,0.31-1.026,0.464c-2.918,1.319-4.457,4.932-4.544,7.923c-0.013,0.459-0.027,0.918-0.04,1.377
		c-0.027,0.926,0.169,1.839,0.48,2.718c-1.351,9.78-6.597,21.147-9.152,30.123c-3.454,12.134-6.913,24.266-10.309,36.416
		c-2.786,9.967,10.043,17.439,17.333,10.09c0.42-0.424,0.823-0.86,1.239-1.287c-4.099,5.635-8.335,11.137-12.558,16.511
		c-8.324,10.594,4.165,23.231,14.771,14.771C1017.577,951.771,1042.199,869.257,999.589,815.521z M212.486,827.96
		c-15.316,12.235-27.224,28.784-34.095,47.097c4.632-6.178,9.804-12.014,15.512-17.446c8.374-7.97,20.921,2.134,15.677,12.096
		c-3.836,7.287-6.849,14.785-8.762,22.802c-1.094,4.584-0.826,9.781-2.143,14.211c-0.295,0.991-0.458,1.742-0.551,2.329
		c6.292,5.795,0.895,17.366-7.735,17.78c-7.112,0.341-11.071-2.71-12.925-7.666c-1.518,4.49-2.861,9.077-3.893,13.835
		c-1.984,9.148-17.113,9.492-18.843,0c-8.268-45.369,10.09-91.184,50.501-114.441C210.969,815.254,217.898,823.637,212.486,827.96z
		 M198.06,909.507C197.865,911.345,198.615,910.715,198.06,909.507L198.06,909.507z M196.681,907.961
		c-0.292-0.208-0.616-0.412-1.017-0.606C196.039,907.536,196.349,907.754,196.681,907.961z M536.476,1045.512
		c-8.079,2.239-16.817,0.333-24.991-0.246c-9.473-0.67-20.532,1.103-25.371,9.273c9.179-3.827,25.959,8.142,22.393,17.425
		c-3.567,9.284-22.885,12.541-31.779,8.092c-5.018-2.51-4.348-5.166-9.954-5.41c-3.452-0.151-10.496,5.622-12.944,7.631
		c-2.787,2.287-6.457,2.751-9.926,2.964c-6.754,0.414-13.638-1.624-20.169-2.081c-10.133-0.709-20.536-9.247-19.058-19.297
		c-7.611-1.564-21.588,2.559-28.855,8.227c-4.395,3.427-2.477,7.846-6.212,10.698c-5.562,4.248-6.013,4.209-17.105,1.568
		c-8.615-2.052-18.518-0.099-23.478-7.436c-4.96-7.337-4.152-18.047,1.852-24.557c2.912-3.158,6.855-5.383,9.149-9.015
		c4.398-6.964,1.704-17.39,7.652-23.088c5.543-5.31,15.145-3.059,21.488-7.381c4.442-3.028,6.324-8.607,9.952-12.574
		c7.102-7.767,21.262-7.189,27.708,1.13c2.045-5.297,9.199-3.779,14.492-5.832c4.691-1.819,12.621-0.349,17.437-1.804
		c6.384-1.928,8.363-11.072,13.228-15.633c8.937-8.378,17.951-2.918,27.184-0.241c6.482,1.88,12.717,4.021,18.513,8.658
		c6.013,4.811,3.635,16.614,8.769,18.025c9.177,2.521,20.707-4.042,27.384,5.566c2.218,3.191,3.382,8,6.685,10.314
		c4.019,2.816,6.893,0.446,9.326,5.074C554.478,1034.372,543.963,1043.437,536.476,1045.512z M390.565,1017.559
		c-4.252-0.054-8.235,1.582-12.312,2.607c-4.589,1.154-9.431,1.798-14.156,1.929c-3.993,0.11-5.248,6.478-0.984,7.27
		c9.748,1.811,23.653,1.619,29.99-7.383C394.431,1020.094,392.64,1017.584,390.565,1017.559z M454.555,1046.297
		c-0.032-2.625-2.337-4.625-4.933-4.276c-2.347,0.315-4.599,2.947-3.62,5.434c0.517,1.312,1.033,2.625,1.55,3.938
		c0.593,1.506,1.288,2.583,2.366,3.775c1.295,1.434,3.431,0.532,4.003-1.057C454.84,1051.557,454.588,1048.978,454.555,1046.297z
		 M363.511,239.013c0.884,2.929,2.758,5.657,6.106,8.065c5.17,3.721,13.032,9.125,19.67,9.393c4.248,0.172,11.283-1.481,14.013-5.07
		c5.112-6.721-4.129-11.217-6.202-16.883c-1.449-3.962-2.158-10.622-2.301-14.879c-0.193-5.746,2.619-12.649,7.631-15.745
		c3.507-2.166,9.455-0.877,13.606-1.93c3.145-8.566,17.443-9.452,21.622-1.341c2.069,4.017,1.969,9.359,5.497,12.183
		c3.206,2.566,7.808,1.771,11.914,1.739c0.333-0.003,0.661,0.059,0.993,0.069c0.152-0.162,0.318-0.309,0.468-0.474
		c0.14,0.19,0.308,0.358,0.46,0.538c10.017,0.669,19.525,7.01,23.742,16.147c3.192,6.917,7.344,23.399,18.362,17.413
		c3.495-1.899,5.17-15.803,16.896-18.55c2.349-0.55,12.251,9.427,17.007,8.055c6.815-1.967,13.058-12.506,11.088-19.447
		c-0.898-3.162-3.627-4.971-4.463-8.218c-1.188-4.616,0.135-10.204,0.306-14.891c0.25-6.862-1.325-12.601,2.762-18.844
		c6.099-9.318,24.622-1.455,20.008-16.446c-1.405-4.564-1.552-9.825-3.865-14.094c-3.928-7.251-11.344-11.511-19.566-11.503
		c-6.928,0.006-13.534,3.267-18.015,8.495c-4.784,5.582-5.846,9.428-12.652,12.372c-6.751,2.921-11.377,10.66-14.729,17.051
		c-2.748,5.239-2.838,15.199,2.545,19.06c1.792,1.286,2.427,4.502,0.001,5.639c-5.932,2.78-12.024-0.165-15.177-5.539
		c-1.528-2.604-2.367-5.717-2.219-8.742c0.171-3.486,2.979-7.255,1.888-10.685c-3.109-9.77-24.257,12.014-18.292,17.683
		c-2.139-2.033-4.778-5.298-7.611-6.397c-3.205-1.244-7.368,0.914-10.6-0.653c-3.804-1.844-4.691-7.073-8.053-9.539
		c-2.466-1.808-14.706-3.229-16.235-3.007c-16.192,2.359-21.044,24.049-21.779,28.96c0.586-3.92-15.454-0.049-16.738,0.459
		c-7.259,2.868-11.274,8.343-13.648,15.562C365.314,223.043,361.292,231.662,363.511,239.013z"/>
	<path fill="#D64747" d="M832.599,253.015c-1.603-5.612-8.017-12.025-24.051-4.81c-4.827,2.172-7.806,15.943-16.034,19.241
		c-4.457,1.786-22.448-3.207-32.069-0.802c-26.833,6.708-31.016,15.463-53.715,31.267c-3.212,2.236-54.516-28.862-109.033,4.009
		c-60.93-16.034-103.955,0.026-130.679,18.439c-32.87-28.862-54.594-22.913-71.352-16.034
		c-12.827-31.267-28.67-22.988-41.689-12.026c-4.895-13.419-25.655-30.465-44.585-15.466
		c-12.856,10.186,23.395,223.303,32.509,270.096c3.921,20.131,2.789,42.047,5.643,62.75c3.175,23.036,18.317,108.522,20.234,128.244
		c2.028,20.865,7.528,138.092,23.73,170.173c9.012,17.846,105.977,80.09,113.994,93.719c57.723-7.215,101.016-17.638,159.414-23.001
		c28.056-2.577,65.757-6.33,93.928-5.861c4.27,0.071,36.102-240.02,45.698-359.969c8.017-100.214,17.638-204.437,26.366-285.827
		C833.69,301.183,832.599,285.885,832.599,253.015z M414.287,904.358c-0.894,3.888-6.204,3.349-7.348,0
		c-3.657-10.708-3.204-22.619-4.215-33.856c-1.148-12.76-2.491-25.499-3.996-38.222c-3.05-25.793-6.56-51.539-10.191-77.257
		c-6.739-47.724-13.728-95.407-20.109-143.18c-13.217-98.946-24.372-198.996-45.323-296.68c-0.668-3.113,3.654-4.249,4.724-1.302
		c17.175,47.313,22.865,97.315,29.912,146.904c7.09,49.892,14.604,99.704,22.25,149.513c7.645,49.795,14.838,99.662,21.841,149.551
		c3.384,24.107,6.567,48.229,9.022,72.451c1.29,12.724,2.446,25.465,3.352,38.222C415.004,881.722,416.822,893.329,414.287,904.358z
		 M557.699,963.346c-3.013-103.99-4.404-208.077-4.951-312.107c-0.547-104.153-0.667-208.126,4.772-312.149
		c0.139-2.655,4.043-2.669,4.137,0c3.631,104.036,3.386,208.054,4.496,312.149c1.11,104.053,3.154,208.07,5.262,312.107
		C571.594,972.198,557.954,972.149,557.699,963.346z M670.481,638.855c-4.553,103.887-11.391,207.647-19.776,311.291
		c-0.737,9.112-15.052,9.127-14.26,0c8.985-103.595,15.471-207.406,19.971-311.291c4.501-103.918,5.624-207.948,10.063-311.84
		c0.233-5.463,8.295-5.467,8.491,0C678.689,430.937,675.033,534.975,670.481,638.855z"/>
	<path d="M613.745,1014.187c8.047,10.748,7.466,29.287-3.133,37.692c1.355,17.949-37.695,27.597-35.207,5.301
		c0.32-2.866,3.165-5.117,5.979-3.431c4.68,2.804,10.613,6.961,14.414,0.795c2.142-3.476,1.166-9.917,5.989-11.361
		c6.411-1.92,7.357-11.844,6.232-17.229c-0.924-4.421-5.037-10.93-10.546-10.79c-2.602,0.066-6.589,2.587-6.678,5.509
		c-0.138,4.515-4.533,6.493-8.345,4.789c-9.581-4.282-13.187,9.065-5.062,13.736c3.526,2.027,1.136,8.059-2.81,6.666
		c-20.903-7.383-10.754-34.103,7.957-31.521C590.005,1003.686,604.712,1002.122,613.745,1014.187z M844.529,261.193
		c-0.732,0.276-1.211,0.99-1.332,1.763c-8.256,52.632-13.935,105.594-18.808,158.636c-8.471,92.2-16.224,184.413-26.261,276.466
		c-4.971,45.594-10.092,91.178-15.401,136.735c-3.415,29.3-6.065,58.691-10.039,87.925c-1.972,14.512-3.793,29.35-7.197,43.61
		c-2.706,11.338,4.108,8.76,10.115,16.013c4.37,5.277,4.453,12.733,3.33,19.156c-0.239,1.368,0.773,2.603,2.158,2.701
		c9.473,0.67,17.455,9.439,14.969,19.1c-0.432,1.677-2.623,4.108-1.12,5.784c6.192,6.892,4.276,19.496-5.037,24.761
		c-6.857,3.876-15.298,3.217-21.992-0.526c-3.089-1.728-13-15.587-15.397-12.768c-5.055,5.943-11.51,10.334-20.044,9.458
		c-11.17-1.146-21.31-12.806-25.902-22.376c-10.205-21.27,9.324-44.621,31.198-31.868c3.684,2.148,1.131,8.776-2.978,7.064
		c-8.169-3.405-15.236-0.908-18.465,7.147c-2.948,7.355,0.134,13.31,5.345,18.783c4.226,4.438,9.548,10.076,16.514,7.273
		c4.247-1.708,7.624-8.508,9.772-12.192c9.779-16.78,25.629,32.476,35.095,17.425c2.603-4.14-1.159-10.461-1.657-14.734
		c-0.96-8.227-8.72-12.049-9.837-19.667c-1.07-7.299,4.214-18.3-5.874-20.826c-6.573-1.646-12.626,3.697-14.982,9.429
		c-2.175,5.292-10.87,3.014-8.71-2.406c1.595-4.005,3.917-7.833,6.85-10.826c1.418-1.447,0.406-3.914-1.62-3.96
		c-70.838-1.595-140.779,13.602-210.781,23.73c-2.326,0.337-2.711,3.418-0.583,4.416c4.81,2.255,8.264,5.658,8.964,10.67
		c0.117,0.837,0.655,1.52,1.442,1.828c4.748,1.856,8.344,6.393,8.204,12.374c-0.197,8.463-6.469,14.006-14.318,15.863
		c-3.004,0.71-8.515,1.896-11.233-0.125c-3.037-2.258-0.794-5.758,1.971-6.969c2.279-0.998,4.624-1.933,6.867-2.983
		c3.513-1.645,4.409-3.637,3.163-7.249c-4.195,1.777-10.826-1.344-8.733-6.621c5.018-12.653-28.091-12.107-34.065-10.069
		c-2.921,0.997-5.759,2.072-5.695,5.584c0.043,2.36,0.922,4.624,0.352,6.995c-0.318,1.324-1.733,3.152-1.402,4.557
		c1.16,4.862-0.967,10.609-3.073,16.062c-0.682,1.766,0.918,3.569,2.75,3.097c6.32-1.629,12.224-2.549,17.96,3.943
		c5.569,6.302,6.195,15.57,2.323,22.805c-7.167,13.391-40.197,24.357-43.284,2.516c-0.306-2.167,1.348-4.751,3.883-3.884
		c6.473,2.216,11.795,6.429,18.892,4.291c5.261-1.585,14.411-8.597,11.096-15.192c-2.243-4.461-9.642-3.891-13.612-2.828
		c-2.707,0.724-5.814,1.236-8.626,1.303c-2.673,0.064-5.639-2.517-5.356-5.356c0.357-3.574,0.623-6.948,1.505-10.446
		c0.453-1.797,3.435-6.995,3.077-8.569c-1.293-5.689-7.542-0.683-11.593,0.273c-2.349,0.554-5.146-0.333-6.331-2.577
		c-6.93-13.117-16.831-5.626-21.603,4.052c-2.784,5.646-3.419,12.464-4.826,18.557c-0.995,4.311-6.969,2.951-7.27-0.984
		c-1.067-13.957,1.851-31.29,16.113-37.841c9.425-4.328,17.853-1.565,23.65,5.203c0.711,0.831,1.867,1.118,2.85,0.639
		c3.489-1.701,6.737-3.645,10.197-3.788c-0.299-1.291-0.815-2.596-1.79-4.003c-2.032-2.929-0.276-6.412,2.165-8.255
		c2.693-2.034,5.525-2.84,8.347-4.423c0.089-0.05,0.186-0.091,0.283-0.122c2.867-0.898,5.184-2.686,6.951-5.365
		c0.334-0.506,0.453-1.167,0.334-1.762c-1.318-6.588-4.76-8.426-10.324-5.513c-4.874,2.658-11.289-2.888-7.968-7.968
		c2.038-3.117-2.248-4.314-7.144-4.738c-2.147-0.186-4.144,1.59-6.875,1.23c-3.875-0.511-7.249-1.846-11.286-1.707
		c-2.582,0.089-7.146-0.797-9.179-0.403c-3.398,0.659-6.122,2.461-6.879,6.443c-0.166,0.875,0.15,1.802,0.871,2.326
		c3.49,2.54,1.621,9.214-3.947,8.242c-5.673-0.99-11.941-1.107-16.386,3.084c-4.305,4.058-4.161,11.477-0.048,15.778
		c1.92,2.008,0.663,5.231-2.069,5.559c-2.587,0.311-4.479-3.19-7.016-1.949c-1.91,0.935-4.713,0.296-5.405-2.17
		c-1.178-4.203-3.046-12.729-9.146-11.708c-3.649,0.61-6.287-2.66-4.674-6.08c2.478-5.254,1.313-13.21-5.464-13.869
		c-6.505-0.632-5.253,8.656-10.742,9.41c-2.047,0.281-19.04-2.416-17.047,2.303c2.071,4.891-3.498,10.253-7.781,5.999
		c-1.593-2.823-3.968-3.531-7.125-2.123c-6.341-1.034-7.844,2.207-4.509,9.726c0.227,0.511,0.669,0.911,1.163,1.174
		c4.095,2.177,4.739,7.532,0.613,10.389c-6.871,4.759-14.407,11.795-8.245,18.292c0.801,0.845,2.104,0.904,3.068,0.251
		c11.681-7.918,27.898-3.642,38.527,4.599c3.631,2.815-1.022,7.537-4.551,5.898c-11.028-5.121-19.153-6.791-28.216-0.195
		c-2.798,2.036-3.398,3.165-7.138,3.704c-8.594,1.24-13.832-6.73-19.766,6.946c-1.576,3.632-1.347,9.606-0.931,13.441
		c1.188,10.94,6.373,19.306,21.317,9.5c3.418-2.243,6.144-6.665,8.615-9.776c3.101-3.903,9.055-0.9,9.853,3.27
		c0.121,0.632,0.576,1.175,1.118,1.523c6.404,4.11,15.102,7.162,15.07-3.474c-0.011-3.598-4.751-12.625-2.065-15.688
		c3.137-3.577,7.218,4.759,10.098,0.943c1.175-1.557,4.077-2.628,4.671-4.389c0.977-2.895,4.654-4.479,6.719-1.432
		c2.611,3.862-0.442,5.651,0.15,10.226c5.908-1.529,11.997-2.185,17.798-4.167c8.406-2.872-1.585-8.52-5.446-10.305
		c-4.789-2.215-1.9-8.817,2.471-9.125c4.638-0.327,6.99-2.598,7.863-5.585c1.668-5.711,10.488-3.514,9.188,2.292
		c-0.018,0.08-0.037,0.161-0.056,0.241c-1.102,4.54-4.935,6.366-3.554,10.984c1.012,3.382,5.03,5.941,4.995,9.717
		c-0.031,3.422-2.772,6.241-4.929,8.462c-0.972,1.001-3.434,2.08-3.639,3.562c-0.558,4.032,1.324,8.668,4.868,10.025
		c3.926,1.504,13.893,0.676,16.356-2.907c1.396-2.031,4.36-3.296,6.632-1.739c3.696,2.534,5.421,4.876,8.851,1.375
		c3.311-3.38,1.542-3.807-0.855-6.923c-3.277-4.262,3.367-8.075,6.839-5.276c6.483,5.226,11.563,14.252,4.409,21.297
		c-5.979,5.888-13.736,4.165-20.168,0.5c-0.753-0.429-1.647-0.407-2.393,0.032c-8.959,5.272-23.478,4.82-30.656-1.969
		c-3.709-3.508-5.066-7.061-4.857-10.455c0.361-5.846-18.779,1.097-21.169-1.261c0.363,5.45-1.883,11.2-6.991,15.449
		c-8.436,7.019-20.197,7.236-27.145,1.101c-0.882-0.778-2.226-0.757-3.077,0.055c-8.953,8.542-20.648,14.471-32.064,5.598
		c-11.168-8.681-12.324-29.653-6.314-41.455c2.757-5.414,8.436-5.596,11.687-10.016c2.382-3.25-0.824-7.929-0.632-11.466
		c0.355-6.54,4.863-12.09,9.659-16.132c0.788-0.664,1.137-1.765,0.696-2.696c-3.117-6.586-1.223-15.32,3.591-21.571
		c5.507-7.15,12.228-7.215,18.39-3.951c2.021,1.07,8.619-6.971,11.483-7.034c4.082-0.089,11.969,3.466,12.065,3.545
		c-1.509-6.514,7.615-8.879,14.212-8.069c9.035,1.111,13.388,8.66,13.423,16.607c0.004,0.995,0.576,1.904,1.521,2.213
		c2.568,0.84,3.87,3.273,6.399,1.236c1.717-1.382,2.401-3.723,3.913-5.283c3.649-3.763,7.395-4.924,12.357-5.656
		c2.89-0.426,6.545-0.354,8.51-2.886c1.34-1.727,5.841-11.818,3.798-13.251c-14.165-9.924-30.733-15.965-45.012-25.984
		c-18.417-12.923-26.684-30.025-31.12-51.722c-21.719-106.23-36.197-214.109-51.79-321.362
		c-7.763-53.398-15.648-106.777-23.561-160.153c-4.027-27.162-8.063-54.326-12.172-81.475c-2.984-19.713-8.656-48.318-10.95-68.135
		c-1.305-11.274-0.667-24.265,17.798-18.486c10.092,3.158,18.074,13.157,24.189,21.252c2.438,3.228,6.242-5.744,6.494-6.419
		c1.423-3.814,4.091-8.211,0.33-11.619c-3.835-3.474-8.241-5.281-11.421-9.72c-5.739-8.01-5.265-17.547,3.816-22.731
		c4.766-2.721,10.174-2.842,15.463-1.826c4.025,0.774,6.139,2.378,9.78-0.264c2.584-1.875,3.76-5.197,6.665-6.779
		c1.806-0.984,18.23-3.906,18.169-0.081c0.003-0.21-0.035-0.407-0.025-0.619c0.569-11.734,9.695-18.413,19.828-21.856
		c4.139-1.407,5.845,4.368,2.768,6.566c-5.364,3.832-21.711,20.604-4.873,23.335c4.126,0.669,5.068,6.424,2.39,9.054
		c-2.291,2.052-4.323,4.337-6.098,6.855c-0.206,0.292-0.352,0.642-0.418,0.993c-1.827,9.693,1.825,14.967,10.956,15.824
		c4.89,0.429,7.189-0.905,11.871,0.289c3.544,0.904,4.171,5.128,2.017,7.642c-8.158,9.522-24.82,4.517-31.932-4.165
		c-3.914-4.778-5.984-10.665-5.043-16.841c0.593-3.89,5.568-9.319,5.085-12.826c-0.678-4.93-10.762-7.006-14.731-6.567
		c-6.398,0.708-5.829,3.635-9.167,7.877c-4.133,5.253-10.006,3.136-15.766,2.661c-6.929-0.572-7.302,1.025-9.714,7.353
		c-0.27,0.707-0.209,1.516,0.222,2.139c3.038,4.389,14.991,4.992,19.24,7.231c2.946,1.553,2.938,6.246,0,7.802
		c-5.967,3.158-6.377,7.263-7.871,13.565c-0.158,0.667-0.312,1.291-0.467,1.933c4.655-1.378,9.536-1.575,14.558,0.326
		c8.553,3.239,12.639,10.916,17.081,18.288c0.723,1.199,2.358,1.492,3.433,0.594c6.052-5.055,14.233-7.008,22.862-4.699
		c9.717,2.599,15.772,8.441,19.695,16.239c0.623,1.238,2.217,1.687,3.374,0.923c22.487-14.835,49.111-2.236,66.587,17.49
		c0.797,0.899,2.12,1.049,3.096,0.348c4.128-2.964,8.383-5.633,12.752-8.005c-0.173-0.123-0.355-0.235-0.523-0.364
		c-2.861-2.197-4.944-5.247-5.766-8.773c-0.864-3.704,1.085-6.83,0.737-10.246c-0.259-2.545-3.434-9.819-6.005-10.686
		c-5.638-1.902-3.481,8.116-7.052,10.176c-6.808,3.928-11.089-8.926-14.791-11.945c-4.337-3.538-5.607-0.8-10.022,0.06
		c-3.622,0.705-7.216-1.345-6.283-5.77c2.446-11.601,16.949-4.455,23.425-3.58c2.969,0.401,5.58,0.029,8.531,0.688
		c2.236,0.499,4.173,1.352,6.529,1.405c3.992,0.088,8.107-1.221,10.892-4.182c5.892-6.264,2.828-18.468-4.311-22.793
		c-3.931-2.381-8.071,1.188-11.329-2.464c-2.148-2.408-2.148-6.836-3.077-9.776c-1.263-3.993-2.879-6.513-7.113-7.912
		c-5.571-1.84-8.579,1.216-13.567,2.071c-4.605,0.789-5.962-1.839-6.197-5.923c-0.098-1.697,1-1.611,0.597-3.399
		c-0.232-1.027-1.457-2.332-2.047-3.187c-1.755-2.546-7.396-11.385-11.337-8.672c-2.876,1.98-0.682,7.162-4.642,9.236
		c-3.643,1.907-6.326-1.25-9.759-2.114c-8.367-2.105-10.869,4.499-6.41,10.794c8.138,11.491-5.963,10.425-11.85,3.28
		c-5.997-7.278-4.046-17.318,3.373-22.781c3.753-2.764,8.347-3.925,12.964-3.777c3.286,0.106,4.053,0.787,6.588-1.157
		c1.498-1.149,2.215-3.349,3.923-4.528c9.115-6.292,18.675,3.421,22.523,11.123c1.446,2.894,2.063,6.849,5.405,8.044
		c2.945,1.054,7.52-0.649,10.716-0.133c5.467,0.883,10.363,3.875,13.73,8.25c2.741,3.561,2.692,8.992,5.341,12.121
		c2.541,3.001,7.988,3.896,10.991,7.074c2.956,3.128,4.948,7.057,5.915,11.237c0.714,3.084-0.971,10.892,0.728,13.013
		c2.201,2.748,10.488-0.873,10.174,4.628c-0.232,4.072-10.175,4.198-12.887,4.968c-4.496,1.277-11.273,6.733-3.921,10.502
		c2.387,1.22,3.528,5.032,1.915,7.275c-3.103,4.314-1.604,9.262,3.85,10.019c2.453,0.341,4.901-0.082,7.409,0.215
		c0.321,0.038,0.647,0.012,0.952-0.093c27.872-9.595,58.638-8.961,87.658,0.414c5.291,1.709,5.791,1.775,9-0.228
		c-10.835-2.571-9.961-18.153-4.584-24.961c1.59-2.014,4.965-3.948,3.597-7.003c-2.195-4.903-10.75-3.304-14.42-1.926
		c-3.165,1.188-6.121-2.984-4.364-5.677c7.143-10.944,23.994-8.291,29.466,3.065c3.337,6.925,0.429,11.717-4.681,16.397
		c-6.029,5.52,1.01,16.066,1.057,16.534c3.457-1.926,6.996-3.701,10.663-5.202c9.888-4.05,20.334-6.525,30.988-7.332
		c1.263-0.096,1.994-2.182,1.228-3c-2.352-2.518-2.043-6.777,1.099-8.551c1.618-0.913,6.116-3.437,9.271-6.154
		c1.133-0.976,1.053-2.788-0.181-3.634c-2.833-1.943-8.011-13.06-1.587-13.333c2.863-0.121,3.914,4.51,6.795,5.754
		c4.06,1.752,8.18,1.016,8.751,6.839c0.412,4.206-4.351,8.424-6.714,11.374c-1.047,1.307-3.192,3.184-3.521,4.907
		c-0.451,2.363,1.497,3.487,1.75,5.887c13.578,1.156,26.882,4.917,39.082,11.002c1.045,0.522,2.29,0.188,2.948-0.777
		c1.792-2.629,3.711-5.106,5.746-7.424c1.102-1.254,0.488-3.225-1.109-3.712c-10.426-3.179-20.308-10.032-21.707-20.806
		c-1.428-10.996,6.68-16.963,15.911-18.785c1.12-0.221,1.895-1.264,1.814-2.403c-0.508-7.081,1.967-14.021,10.538-15.226
		c4.303-0.605,13.685,5.759,14.846,5.283c0.572-0.234,4.472-10.394,7.293-12.308c6.231-4.229,18.047-4.032,24.998,0.754
		c0.847,0.583,2.017,0.521,2.784-0.165c0.517-0.462,7.208-5.343,7.95-4.471c-2.689-3.159-17.631,1.313-12.891-8.318
		c1.913-3.886,7.268-9.907,6.78-14.451c-0.603-5.617-9.602-2.604-13.16-0.464c-0.405,0.243-0.693,0.627-0.869,1.065
		c-1.869,4.653-4.657,9.082-7.694,12.932c-3.702,4.691-11.441-1.469-8.207-6.332c3.565-5.361,7.799-10.574,7.637-17.327
		c-0.066-2.729-2.817-7.678-5.537-8.733c-3.962-1.538-3.767,3.038-7.673,3.204c-4.134,0.157-6.354-3.707-5.598-7.264
		c1.644-7.734-8.207-8.917-14.023-8.839c-9.096,0.122-14.768,4.075-16.886,12.946c-1.025,4.295-7.874,4.422-8.817,0
		c-3.413-15.992,9.767-25.099,24.348-25.475c6.806-0.176,14.185,1.217,19.969,4.971c2.743,1.78,4.029,4.162,6.236,6.33
		c3.662,3.597,9.484,3.873,13.06,7.923c3.194,3.619,4.839,7.534,5.359,11.537c0.183,1.408,1.514,2.329,2.891,1.983
		c5.909-1.482,12.263-0.765,16.251,4.131c3.755,4.609,2.784,10.023,0.559,15.24c-0.495,1.16,0.054,2.485,1.205,3
		c5.034,2.254,9.14,6.862,9.114,12.187c4.573,1.947,6.754,6.99,1.528,9.096c-3.15,1.269-7.043-0.342-10.31,0.248
		c-2.909,0.526-5.637,1.916-7.852,3.856c-0.463,0.405-0.693,0.998-0.745,1.611c-0.258,3.023-9.987,18.22,1.252,15.464
		c3.275-0.803,7.178-6.019,10.209-7.883c5.317-3.27,12.076-5.566,18.241-3.412c4.768,1.667,7.098,8.384,11.582,9.095
		c5.897,0.935,10.808-1.836,16.864,0.228c4.531,1.545,11.657,4.444,14.678,9.026c0.556-0.066,1.103-0.15,1.668-0.2
		C850.298,247.801,850.91,258.788,844.529,261.193z M801.413,266.72c1.915,0.99,3.811,2.04,5.671,3.2
		c4.809-7.825,11.392-13.712,19.464-17.351c-0.489-0.268-0.983-0.521-1.492-0.743c-5.28-2.301-10.877-3.114-16.297-1.053
		C808.45,257.241,806.064,263.579,801.413,266.72z M720.759,273.024c20.076-15.306,46.674-19.187,70.827-10.597
		c1.542-6.878,8.081-13.638,4.781-21.212c-3.995-9.169-18.511,4.318-20.851,9.311c-0.77,1.642-2.005,2.436-3.339,2.611
		c-1.202,1.044-3.169,1.294-4.473,0.016c-3.871-3.797-9.339-6.863-14.789-6.287c-4.141,0.437-5.079-4.822-3.049-7.362
		c4.512-5.647,14.431-13.663,4.283-17.786c-11.282-4.584-12.063,8.441-17.243,13.83c-2.091,2.175-4.111,2.772-7.185,2.352
		c-7.582-1.036-19.788-12.333-12.704,5.064c1.233,3.029-1.91,6.858-5.036,6.61c-6.339-0.503-10.29-0.629-12.168,5.732
		c-1.751,5.93,0.286,6.971,4.867,10.456C709.416,269.362,715.008,271.62,720.759,273.024z M829.838,265.351
		c-6.243,3.356-11.151,8.811-14.002,15.916c-1.381,3.441-5.956,6.831-9.695,3.944c-31.741-24.501-75.067-16.452-95.327,18.338
		c-1.636,2.81-5.668,4.029-8.489,2.226c-32.356-20.688-73.733-18.754-104.789,3.586c-1.601,1.152-3.741,0.771-5.372,0
		c-40.092-18.959-86.769-12.092-120.862,15.81c-3.019,2.471-6.624,2.019-8.911-1.148c-14.875-20.597-42.275-36.465-62.912-13.807
		c-2.965,3.255-8.672,1.543-9.744-2.572c-1.628-6.252-3.286-12.099-8.728-15.954c-6.661-4.718-18.877-5.633-22.692,3.744
		c-1.546,3.802-6.731,6.397-10.01,2.643c-3.816-4.37-6.389-9.213-9.598-13.991c-1.963-2.923-4.059-7.273-7.303-9.049
		c-8.07-4.418-17.221,3.147-22.782,7.595c-3.007,2.405-7.41,2.45-9.56-1.232c-4.04-6.918-20.824-34.65-31.87-28.192
		c-0.249,0.146-0.496,0.26-0.739,0.351c8.59,27.707,11.852,57.718,16.932,86.196c5.295,29.685,9.99,59.484,14.467,89.303
		c15.616,104,29.756,208.218,46.502,312.047c8.177,50.7,15.63,102.013,26.939,152.128c5.387,23.871,18.181,36.592,38.852,48.17
		c14.212,7.961,28.709,15.167,40.562,26.417c2.995,0.327,5.869,1.246,8.332,2.712c-2.212-47.214-4.301-94.433-6.54-141.646
		c-4.225-89.089-8.786-178.168-13.805-267.217c-4.867-86.362-10.703-141.12-11.754-227.634c-0.02-1.684,2.721-2.123,2.994-0.405
		c7.411,46.748,9.144,62.214,12.754,109.379c13.387,174.916,21.995,350.207,29.551,525.462c8.304,0.339,16.512,4.403,18.272,10.946
		c7.102,0.004,13.882,3.641,16.709,11.119c0.874,2.311,1.218,4.843,1.091,7.356c40.977-8.317,82.371-14.463,123.636-21.179
		c41.89-6.818,83.758-11.953,126.281-9.983c2.877-52.261,11.884-104.544,17.785-156.538
		c10.545-92.903,18.829-186.042,26.729-279.202C810.267,442.288,816.585,353.431,829.838,265.351z M726.997,256.424
		c2.595-0.639,5.004-0.172,7.426,0.907c2.538,1.131,4.54,3.127,7.433,3.271c1.387,0.07,2.822-1.06,3.149-2.398
		c1.126-4.609-3.142-8.408-6.925-10.212c-4.15-1.979-9.259-2.014-13.571-0.596C718.81,249.27,721.108,257.873,726.997,256.424z
		 M551.83,259.246c-5.252-2.706-11.091-1.621-15.568,1.984c-3.234,2.603,0.957,7.923,4.419,5.728
		c2.259-1.433,5.126-1.817,7.267,0.079c1.962,1.738,2.363,4.972,4.819,6.076c1.444,0.649,3.034,0.624,4.221-0.545
		C561.347,268.279,555.969,261.379,551.83,259.246z M542.455,91.177c12.194-1.218,21.804-6.607,26.672,9.423
		c1.213,3.993,0.28,9.646,4.598,12.005c3.087,1.687,4.677,0.326,7.519-0.844c5.808-2.39,10.784-6.625,16.854-1.26
		c7.141,6.31,5.352,18.456-2.208,23.171c-3.272,2.041-1.636,6.414,1.841,6.796c21.605,2.373,17.458-46.29-10.438-41.998
		c-2.613,0.402-5.636,1.488-8.053,3.055c-0.218-6.098-0.553-12.374-4.545-17.43c-8.485-10.744-24.678-8.529-34.437-1.033
		C537.292,85.34,537.607,91.661,542.455,91.177z M571.184,118.035c-4.772-1.697-7.874,5.793-3.439,8.158
		c2.983,1.591,5.3,3.702,7.312,6.414c0.833,1.123,1.565,2.301,2.19,3.553c0.935,1.872,2.182,2.813,3.474,4.338
		c1.744,2.057,5.941,1.085,6.368-1.681c0.42-2.719,0.862-4.517-0.332-7.153c-1.006-2.221-2.351-4.317-3.945-6.164
		C579.766,121.972,575.524,119.579,571.184,118.035z M507.915,151.291c-5.543,8.11-6.509,21.193,1.649,26.681
		c5.504,3.702,17.54,4.95,26.633,3.004c-0.021,0.094-0.052,0.182-0.071,0.277c-0.86,4.066-0.93,9.573,1.369,13.256
		c0.43,0.688,1.048,1.31,1.607,1.895c-3.036,4.861-5.081,9.349-3.457,15.245c2.127,7.725,10.145,13.98,17.884,10.4
		c2.379-1.101,2.316-5.081,0.002-6.203c-5.411-2.623-14.976-11.66-4.444-15.812c2.515-0.992,3.535-2.909,3.168-5.572
		c-0.603-4.377-4.366-3.111-6.278-5.258c-4.911-5.522,3.406-15.342,9.752-14.168c4.773,0.883,6.535-5.549,1.997-7.243
		c-5.848-2.183-11.322-0.833-15.359,2.61c-7.361-1.15-15.136,3.028-22.672,2.378c-11.069-0.955-10.973-15.407-1.726-20.08
		c3.467-1.752,1.956-7.919-2.041-7.535c-3.867,0.372-5.965-5.276-5.787-8.117c0.281-4.489,2.526-8.355,6.389-10.994
		c6.063-4.142,14.692-3.398,21.371-1.554c3.339,0.922,5.769-4.245,2.432-5.77c-13.405-6.125-30.733-4.823-37.089,10.556
		C500.321,136.357,501.774,146.9,507.915,151.291z M496.802,209.555c1.769,0.31,3.621,0.252,5.507-0.082
		c1.695,1.249,3.447,2.343,3.744,2.605c1.939,1.712,3.884,3.643,5.239,5.855c2.915,4.761,1.326,9.51,2.372,14.634
		c0.601,2.943,4.837,4.858,7.356,2.993c8.254-6.111,5.142-17.741-0.307-24.896c-1.854-2.434-4.069-4.397-6.467-6.144
		c3.988-2.406,7.642-5.211,10.426-7.45c3.857-3.102-1.15-9.484-5.277-6.839c-4.001,2.565-9.866,6.203-15.469,7.91
		c-2.587-1.422-5.394-2.568-8.014-2.049C487.697,197.722,489.369,208.252,496.802,209.555z M496.795,217.776
		c-1.882-0.324-3.779,0.215-4.794,1.951c-0.98,1.675-0.613,3.747,0.664,5.145c-0.009-0.01,0.193,0.214,0.355,0.393
		c0.147,0.197,0.881,1.091,1.051,1.278c0.504,0.553,1.006,1.087,1.488,1.66c0.192,0.229,0.392,0.45,0.59,0.673
		c0.078,0.088,0.111,0.122,0.157,0.173c0.071,0.094,0.142,0.188,0.266,0.349c0.937,1.213,2.213,1.828,3.676,2.156
		c2.284,0.511,4.722-0.677,5.356-3.041c0.798-2.974-0.427-5.679-2.69-7.664C501.128,219.282,499.146,218.181,496.795,217.776z
		 M418.407,254.807c4.105,1.248,6.992-5.156,2.978-7.063c-9.298-4.417-21.052,0.792-22.784,11.371
		c-1.677,10.24,9.604,22.463,20.271,18.381c5.173-1.98,4.83-10.194-1.374-10.157c-4.057,0.025-9.883-1.385-9.173-6.908
		C408.889,256.04,414.658,253.668,418.407,254.807z M397.705,183.362c3.715-3.317,4.34-8.271,8.007-11.774
		c4.352-4.156,10.153-5.504,15.875-6.571c2.174-0.406,3.897-3.337,3.078-5.421c-3.063-7.795,12.749-11.694,10.014,0.245
		c-0.967,4.222-3.279,7.201-6.461,10.001c-4.293,3.777,1.529,11.561,6.2,8.036c8.89-6.709,19.942-26.487,5.479-33.955
		c-10.277-5.307-24.662,2.306-24.571,13.398c-11.504,2.797-29.361,10.784-24.808,24.143
		C391.59,184.609,395.217,185.584,397.705,183.362z M615.686,234.431c-1.899-0.514-3.873-0.889-5.844-0.964
		c-2.414-0.092-3.626,0.82-5.704,1.799c-2.452,1.155-2.233,4.986,0,6.204c1.648,0.899,2.431,1.673,4.338,2.093
		c1.692,0.373,3.432,0.513,5.131,0.851c3.368,0.669,6.768,1.373,10.037,2.431c4.368,1.413,6.05-4.489,2.894-6.864
		C623.182,237.454,619.76,235.535,615.686,234.431z M603.56,198.104c1.172,4.677,8.861,3.816,8.553-1.158
		c-0.33-5.333,3.143-17.355,10.518-15.848c3.767,0.77,2.343,1.832,3.118,5.41c0.575,2.656,1.288,4.326,2.717,6.702
		c2.157,3.586,6.752,3.119,9.001,0c3.347-4.642,6.623-10.203,10.912-14.008c5.075-4.502,8.102-4.165,14.1-4.018
		c1.684,0.041,3.306-1.826,2.677-3.514c-2.224-5.971-7.931-7.774-14.036-6.213c-6.545,1.673-11.462,7.426-15.739,13.205
		c-0.442-3.111-1.27-6.028-4.528-8.338c-4.046-2.869-8.806-2.38-13.278-0.683C605.914,174.066,600.636,186.44,603.56,198.104z
		 M664.566,196.512c-10.267,4.5-17.539,18.655-11.603,29.091c0.851,1.496,2.55,2.47,4.271,2.45c2.923-0.034,4.675-2.053,4.946-4.946
		c0.404-4.306-1.444-7.431,0.958-11.736c6.182-11.08,19.189-5.249,26.366,1.285c2.395,2.18,7.25,0.092,5.913-3.442
		C690.922,197.326,676.314,191.363,664.566,196.512z M718.542,200.554c1.638-0.856,3.082-2.394,3.618-4.101
		c2.122-6.759-2.873-14.913-8.621-18.127c-7.202-4.026-16.2-2.266-21.457,4.013c-2.981,3.56,1.057,10.292,5.409,7.01
		c2.821-2.128,7.11-3.246,10.387-1.339c3.735,2.174,3.504,6.069,4.311,9.749C713.024,201.572,716.015,201.875,718.542,200.554z
		 M465.989,170.014c1.182-3.178,4.019-5.412,7.24-6.296c3.249-0.892,6.874,0.154,9.822-1.678c1.233-0.766,2.293-2.628,1.676-4.118
		c-2.65-6.399-10.973-5.471-16.08-2.648c-5.286,2.922-8.494,7.941-9.286,13.843C458.821,173.133,464.765,173.307,465.989,170.014z
		 M507.49,353.28c-0.29-5.074-7.423-5.007-7.838,0c-7.989,96.358-3.245,194.816-0.035,291.326
		c3.228,97.073,8.847,194.053,16.642,290.864c0.715,8.877,14.655,8.954,13.934,0c-7.795-96.813-13.381-193.795-16.707-290.864
		C510.163,547.633,513.029,450.114,507.49,353.28z M614.492,332.264c-7.808,202.655-9.044,405.572-14.385,608.334
		c-0.227,8.62,13.155,8.613,13.39,0c5.516-202.677,11.48-405.621,7.201-608.334C620.613,328.263,614.646,328.276,614.492,332.264z
		 M709.79,357.256c-7.556,44.82-9.018,90.927-12.185,136.23c-3.272,46.813-6.318,93.641-8.999,140.492
		c-5.362,93.698-9.884,187.449-13.451,281.232c-0.336,8.827,13.386,8.814,13.716,0c3.477-92.874,7.899-185.705,13.493-278.476
		c2.769-45.924,5.675-91.841,8.835-137.74c3.208-46.602,8.929-93.666,8.534-140.392C719.687,353.107,710.769,351.453,709.79,357.256
		z M760.403,305.032c-7.034,100.658-10.002,201.576-16.914,302.269c-6.908,100.639-15.676,201.186-26.944,301.433
		c-0.982,8.736,12.799,8.724,13.716,0c10.551-100.328,19.677-200.779,26.504-301.433c6.816-100.503,13.439-201.512,12.02-302.269
		C768.709,299.589,760.776,299.693,760.403,305.032z M351.449,605.82c-6.831-48.546-13.86-97.061-20.929-145.572
		c-6.899-47.344-11.176-94.607-29.786-138.98c-1.31-3.123-6.202-2.046-5.249,1.447c12.468,45.689,19.346,93.239,25.707,140.104
		c6.475,47.7,12.979,95.392,19.687,143.059c13.665,97.113,26.487,194.385,41.055,291.366c0.865,5.759,11.031,4.458,10.264-1.389
		C379.495,799.068,365.052,702.483,351.449,605.82z M407.232,609.598c-5.546-44.167-11.2-88.32-16.847-132.474
		c-5.447-42.595-9.566-85.931-18.268-127.981c-0.878-4.244-7.818-3.326-7.591,1.027c2.309,44.227,9.598,88.559,15.297,132.473
		c5.731,44.163,11.467,88.324,17.299,132.474c5.758,43.589,11.499,87.181,16.571,130.856c2.427,20.898,4.719,41.813,6.779,62.75
		c2.064,20.974,1.737,43.307,6.945,63.762c0.986,3.873,6.138,2.634,6.522-0.882c2.331-21.371-1.828-44.266-3.819-65.61
		c-2.038-21.848-4.344-43.669-6.825-65.471C418.324,696.835,412.71,653.224,407.232,609.598z M748.894,100.334
		c-0.865,4.472,0.219,9.504,3.155,13.959c7.184,10.897,22.048,14.691,34.161,11.368c10.985-3.014,21.874-12.535,21.181-24.824
		c-0.395-7.005-4.189-13.287-9.658-17.076c3.197-26.223-25.529-42.456-47.288-28.83c-5.86,3.67-0.555,12.866,5.439,9.306
		c14.974-8.893,30.18-0.114,31.891,15.445c-1.273,0.149-2.542,0.328-3.817,0.457c-5.785,0.627-6.009,9.636,0,9.23
		c18.741-2.217,11.857,21.448-0.885,24.915c-4.631,1.261-9.136,0.976-13.548-0.873c-2.512-1.053-14.557-10.106-8.076-12.749
		c5.468-2.23,5.626-12.234-1.552-11.466c-2.564,0.274-5.515,0.677-8.042-0.052c-1.594-0.154-3.118-0.584-4.574-1.288
		c0.161-6.975,3.12-9.969,8.876-8.98c3.583-0.116,3.406-5.045,0-5.443c-10.092-1.179-24.118,2.036-21.249,15.541
		C736.351,95.758,742.367,99.041,748.894,100.334z M631.802,110.253c1.599,9.451,10.185,15.68,20.138,15.439
		c8.217-0.199,14.603-4.697,18.601-11.161c25.668,1.934,35.804-30.643,19.257-49.62c-8.357-9.584-21.26-16.742-34.187-13.49
		c-14.372,3.615-21.451,16.701-25.953,29.619c-1.913,5.489,6.609,9.007,9.351,3.942c7.085-13.084,16.587-25.454,33.146-19.265
		c7.443,2.782,13.352,10.283,14.155,18.217c1.052,10.393-6.693,19.869-17.721,16.923c-3.715-0.992-6.856,1.259-8.153,4.629
		c-2.945,7.649-8.525,7.223-13.684,4.407c5.528-2.19,10.393-6.551,9.04-12.515c-0.609-2.686-3.395-3.699-5.825-3.307
		c-2.037,0.329-3.331,1.678-4.947,2.722c-0.194-0.033-2.032,0.661-2.531,0.777c-0.912,0.212-1.752,0.493-2.683,0.576
		c-3.669,0.328-7.968-1.42-9.911-4.601c-3.233-5.292-12.174-1.914-10.247,4.32C621.585,104.13,626.091,108.319,631.802,110.253z"/>
</g>
</svg>
